<svg id="Capa_1" data-name="Capa 1" xmlns="http://www.w3.org/2000/svg" viewBox="0 0 326.9 380.76"><defs><style>.cls-1{fill:#a32929;}</style></defs><title>colored-long-female-hair-tincture</title><path class="cls-1" d="M290.06,178.17c5.35-8,63.77-96.06,63.77-96.06l-11-7.33L279,170.83c-5.12,7.74-52.15,13.55-54.34,16.88s-16.56,24.92-16.56,24.92l67.49,44.79s14.14-21.27,16.57-24.9S284.72,186.22,290.06,178.17Z" transform="translate(-26.93 0)"/><path class="cls-1" d="M186.35,257l2.42,1.61,2.11-3.27c5.06-7.47,10.11-14.94,14.06-20.42s6.67-9.1,6.67-9.1-2.27,3.9-5.82,9.68-8.45,13.32-13.38,20.88c-.73,1.07-1.44,2.14-2.18,3.22l1.55,1c.72-1.09,1.39-2.16,2.11-3.26,5-7.47,10.13-14.94,14.05-20.42s6.67-9.11,6.67-9.11-2.27,3.91-5.81,9.68-8.43,13.32-13.37,20.87l-2.19,3.22,1.69,1.13c.72-1.08,1.41-2.16,2.12-3.24,5.06-7.48,10.12-14.94,14.07-20.44s6.66-9.11,6.66-9.11-2.27,3.91-5.79,9.68-8.46,13.33-13.4,20.88c-.74,1.08-1.45,2.14-2.16,3.21l1.29.87c.7-1.09,1.41-2.16,2.12-3.25,5-7.47,10.1-15,14-20.43s6.67-9.11,6.67-9.11-2.26,3.9-5.81,9.68-8.43,13.32-13.38,20.88c-.73,1.07-1.45,2.13-2.16,3.21l1,.65c.72-1.07,1.41-2.16,2.13-3.23,5-7.49,10.1-14.94,14-20.44s6.67-9.12,6.67-9.12-2.27,3.9-5.8,9.68-8.45,13.34-13.38,20.89c-.75,1.07-1.45,2.13-2.18,3.2l1.38.93,2.11-3.26c5-7.48,10.1-14.92,14.05-20.42s6.65-9.11,6.65-9.11-2.25,3.91-5.79,9.69-8.44,13.32-13.38,20.88c-.73,1.08-1.43,2.15-2.17,3.21l1.23.82c.68-1.09,1.39-2.18,2.11-3.25,5-7.47,10.11-15,14-20.44s6.67-9.1,6.67-9.1-2.25,3.91-5.8,9.65-8.45,13.35-13.39,20.89l-2.16,3.22,1.55,1c.7-1.1,1.41-2.17,2.1-3.26,5-7.47,10.13-14.94,14.06-20.43s6.68-9.1,6.68-9.1-2.29,3.9-5.82,9.67-8.44,13.34-13.39,20.88l-2.16,3.22,1.53,1,2.11-3.26c5-7.47,10.11-14.94,14.06-20.43s6.64-9.11,6.64-9.11-2.25,3.9-5.79,9.66-8.44,13.33-13.37,20.89c-.75,1.07-1.43,2.15-2.19,3.22l1.4.91c.69-1.08,1.39-2.16,2.1-3.25,5-7.47,10.1-14.93,14.06-20.43s6.67-9.1,6.67-9.1-2.28,3.89-5.82,9.67-8.45,13.32-13.38,20.88c-.74,1.09-1.46,2.14-2.16,3.21l1.46,1,2.11-3.25c5-7.47,10.09-14.94,14-20.42s6.68-9.12,6.68-9.12-2.27,3.9-5.82,9.68-8.45,13.34-13.38,20.88c-.72,1.07-1.46,2.14-2.17,3.21l1.46,1c.69-1.1,1.39-2.16,2.12-3.24,5.05-7.48,10.08-14.94,14-20.44s6.65-9.12,6.65-9.12-2.24,3.91-5.8,9.68S229,270,224.08,277.53l-2.18,3.21,1.06.72c.71-1.09,1.39-2.18,2.14-3.26,5-7.48,10.07-14.94,14-20.43s6.66-9.1,6.66-9.1-2.27,3.91-5.8,9.68-8.46,13.33-13.4,20.88c-.71,1.07-1.43,2.16-2.16,3.22l.81.55,2.13-3.25c5.05-7.48,10.09-14.94,14-20.44s6.67-9.1,6.67-9.1-2.27,3.9-5.81,9.67-8.44,13.33-13.38,20.88c-.72,1.07-1.43,2.14-2.17,3.22l1.31.84,2.11-3.23c5-7.48,10.08-14.95,14-20.44s6.67-9.1,6.67-9.1-2.27,3.92-5.81,9.67-8.44,13.34-13.37,20.88c-.73,1.09-1.46,2.14-2.17,3.22l1,.67c.69-1.09,1.41-2.17,2.11-3.26,5-7.47,10.12-14.93,14.05-20.42s6.67-9.11,6.67-9.11-2.28,3.9-5.82,9.67-8.43,13.34-13.37,20.88c-.72,1.07-1.44,2.15-2.18,3.21l1.16.76c.68-1.07,1.41-2.16,2.1-3.25,5-7.47,10.12-14.93,14.07-20.42s6.65-9.12,6.65-9.12-2.27,3.9-5.81,9.67-8.43,13.33-13.37,20.89c-.74,1.07-1.45,2.14-2.18,3.21l1,.67c.71-1.09,1.41-2.18,2.12-3.25,5.05-7.47,10.1-14.94,14.05-20.44s6.68-9.1,6.68-9.1-2.28,3.91-5.82,9.67-8.45,13.33-13.39,20.87c-.71,1.08-1.44,2.14-2.15,3.24l.88.59c.71-1.08,1.42-2.17,2.11-3.27,5.07-7.47,10.12-14.93,14.07-20.42s6.68-9.1,6.68-9.1-2.28,3.9-5.83,9.67-8.44,13.33-13.37,20.88c-.73,1.08-1.46,2.15-2.16,3.22l2.5,1.66,25.15-37.89-55.39-36.76Z" transform="translate(-26.93 0)"/><path class="cls-1" d="M254.89,314.66c0-7.22-4.4-14.08-8.7-18.43l-5.29,7.61-1.4-1-51.36-34.23a23.51,23.51,0,0,0-1.74,8.47c-.91,14.85,11.51,54.26,41.21,61.83-10,16.66,4.25,23,4.25,23s26.66,3.34,15.75-27.27C243.68,332,254.89,333.46,254.89,314.66Z" transform="translate(-26.93 0)"/><path class="cls-1" d="M192.05,232.62,203.34,216l-3.34-3,9.95-13.2c3-10.39,17.52-27.27,16.46-46.93-1.22-22.43-20.9-53.95-20.9-53.95S205.8-2.39,136.69,0,46.36,114.61,45.76,128s1.81,33.34,1.81,33.34-6.08,1.22-5.46,6.67,5.76,10.92,6.07,15.16-12.74,3.34-12.13,9.11,9.09,7.87,7.87,12.12-17.57,8.79-17,23S52.1,255,53.61,271,32.1,297.1,30,314.08s28.18,27.28,28.49,42.74-20,23.94-20,23.94,53.05-.91,33.94-61.24c-3.33-6.06,30.31-39.09,18.8-70.32,11.52-8.49,0-27.89,0-27.89a34.32,34.32,0,0,0,11.52-25.76c-.24-16.37-11.52-37.29-11.52-37.29S117,111.88,125.16,91c28.51,10.61,53.36-43,53.36-43s21.81,36.37,20.61,75.18c-3.63,7-24.24,48.8-23.64,67.29C175.82,200.38,183,216.34,192.05,232.62Z" transform="translate(-26.93 0)"/></svg>