<svg id="Capa_1" enable-background="new 0 0 512 512" height="512" viewBox="0 0 512 512" width="512" xmlns="http://www.w3.org/2000/svg"><g><path d="m425.988 429.033c-4.946 0-9.746-.638-14.324-1.831v17.936c0 18.472 15.028 33.5 33.501 33.5h33.335c1.93 0 3.5 1.57 3.5 3.501v29.861h30v-29.861c0-18.473-15.028-33.501-33.5-33.501h-33.335c-1.931 0-3.501-1.57-3.501-3.5v-18.32c-4.983 1.432-10.238 2.215-15.676 2.215z"/><path d="m122.519 311.02-.703.882v45.241h-31.814v31.792c0 50.292-40.097 91.39-90.002 93.018v30.047h356.432v-84.238c0-40.551-32.991-70.619-73.46-70.619h-76.689v-43.427c-12.016 4.685-25.079 7.261-38.732 7.261-16.08 0-31.337-3.574-45.032-9.957z"/><path d="m337.653 216.828v-46.368c0-93.321-75.028-170.2-168.349-170.46-93.31-.259-169.304 75.576-169.304 168.827v271.691 11.412c33.357-1.609 60.002-29.248 60.002-62.996l.596-253.424h58.018c18.712 0 33.935-15.223 33.935-33.935v-12.65h30v12.651c0 18.712 15.223 33.935 33.935 33.935h58.018l.441 88.198c0 29.084 23.577 52.662 52.662 52.662h41.54v-59.543z"/><path d="m244.502 165.511h-28.018c-19.617 0-37.197-8.879-48.935-22.831-11.737 13.952-29.317 22.831-48.935 22.831h-28.016v48.515c0 42.431 34.521 76.951 76.952 76.951s76.952-34.521 76.952-76.951z"/><path d="m398.145 270.807h55.687v-105.66l-55.687 47.439z"/><path d="m453.832 125.737v-50.28c0-15.378-12.466-27.844-27.844-27.844s-27.844 12.466-27.844 27.844v97.72z"/><path d="m482 278.97-28.168 21.969v-.132h-55.687v71.383c0 15.377 12.466 27.844 27.844 27.844s27.844-12.466 27.844-27.844v-33.206l29-22.617 29.167-22.749v-88.188h-29.168-.832z"/></g></svg>